<?xml version="1.0" encoding="utf-8"?>
<!-- Generator: Adobe Illustrator 26.5.0, SVG Export Plug-In . SVG Version: 6.00 Build 0)  -->
<svg version="1.1" id="Layer_1" xmlns="http://www.w3.org/2000/svg" xmlns:xlink="http://www.w3.org/1999/xlink" x="0px" y="0px"
	 viewBox="0 0 50 50" style="enable-background:new 0 0 50 50;" xml:space="preserve">
<style type="text/css">
	.st0{stroke:#FFFFFF;stroke-width:2;stroke-miterlimit:10;}
	.st1{fill:#FFFFFF;}
	.st2{fill:#FFFFFF;stroke:#000000;stroke-miterlimit:10;}
</style>
<path class="st0" d="M35.8,46.1H14.74c-5.84,0-10.57-4.73-10.57-10.57V14.47C4.17,8.63,8.9,3.9,14.74,3.9H35.8
	c5.84,0,10.57,4.73,10.57,10.57v21.06C46.38,41.37,41.64,46.1,35.8,46.1z"/>
<circle class="st1" cx="32.71" cy="20.49" r="7.74"/>
<path class="st2" d="M30.04,22.63c-0.37,0-0.73,0.04-1.08,0.09c-1-2.44-3.4-4.15-6.2-4.15c-3.54,0-6.43,2.74-6.68,6.22
	c-0.15-0.01-0.29-0.02-0.44-0.02c-3.11,0-5.64,2.52-5.64,5.64c0,3.11,2.52,5.64,5.64,5.64h14.4c3.7,0,6.71-3,6.71-6.71
	S33.75,22.63,30.04,22.63z"/>
</svg>
